<svg xmlns="http://www.w3.org/2000/svg" width="16" height="16" style="fill: white;">
  <path d=" M 10.05 8.05 L 15.65 13.65 C 16.25 14.25 16.25 15.05 15.65 15.65 C 15.05 16.25 14.25 16.25 13.65 15.65 L 8.05 10.05 L 2.45 15.65 C 1.85 16.25 1.05 16.25 0.45 15.65 C -0.15 15.05 -0.15 14.25 0.45 13.65 L 6.05 8.05 L 0.45 2.45 C -0.15 1.85 -0.15 1.05 0.45 0.45 C 1.05 -0.15 1.85 -0.15 2.45 0.45 L 8.05 6.05 L 13.65 0.45 C 14.25 -0.15 15.05 -0.15 15.65 0.45 C 16.25 1.05 16.25 1.85 15.65 2.45 L 10.05 8.05 Z "/>
</svg>
