<svg xmlns="http://www.w3.org/2000/svg" width="13" height="12" style="fill:#6C757D;">
  <path d="M9.53923048,13.9 C8.13923048,15.3 5.83923048,15.4 4.43923048,14 L4.33923048,13.9 C3.63923048,13.2 3.33923048,12.2 3.43923048,11.2 C3.53923048,9.3 5.03923048,7.7 6.93923048,7.5 C8.83923048,7.7 10.3392305,9.3 10.4392305,11.2 C10.5392305,12.2 10.1392305,13.2 9.53923048,13.9 Z M12.8392305,0 L1.03923048,0 C0.739230485,0 0.439230485,0.1 0.239230485,0.4 C0.0392304845,0.7 -0.0607695155,1 0.0392304845,1.4 C0.339230485,3 1.23923048,4.3 2.63923048,5.2 C5.33923048,6.9 8.73923048,6.9 11.4392305,5.2 C12.7392305,4.3 13.7392305,3 13.9392305,1.4 C14.0392305,1.1 13.9392305,0.7 13.7392305,0.4 C13.4392305,0.1 13.1392305,0 12.8392305,0 Z" transform="matrix(1 0 0 -1 0 15.001)"/>
</svg>
